{"title":"Support Your Local Sheriff (1969) 720p DVDRemastered.mkv","uid":9463415,"size":2181739537,"categoryP":"video","categoryS":"hd___movies","magnet":"?xt=urn:btih:2fbd17b7ba470c3f5e212095b3404cbc900c7b0c&amp;dn=Support+Your+Local+Sheriff+%281969%29+720p+DVDRemastered.mkv&amp;tr=udp%3A%2F%2Ftracker.openbittorrent.com%3A80&amp;tr=udp%3A%2F%2Fopen.demonii.com%3A1337&amp;tr=udp%3A%2F%2Ftracker.coppersurfer.tk%3A6969&amp;tr=udp%3A%2F%2Fexodus.desync.com%3A6969","seeders":3,"leechers":5,"uploader":"Navarre66","files":1,"time":1389394430,"description":"I took an original DVD. I then used an avisynth script to reduce the frame-rate from 29.97 fps back to the original 23.976 fps. The same script was used to do some cleaning of the video to improve the quality. I then ran it through the Super Resolution VirtualDub plugin Infognition.com. I also used Subtitle Edit to OCR the Spanish and French subtitles from the original DVD since I could not find replacements at the various subtitle websites. The English and Spanish audio were left untouched.\n\nI've seen the HDTV upload on here and still felt this was a higher quality version. If others disagree, I won't try to use Super Resolution on any more movies because it took me about 3 days to process this video at this high quality.\n\n\n\nGeneral\nUnique ID                                : 203132299849112903773833360523370292655 (0x98D1DB9F047E80BC95AB37CC5CA5E5AF)\nComplete name                            : F:Excalibur-XPDrive GincomingMoviesSupport Your Local Sheriff (1969) 720p DVDRemastered.mkv\nFormat                                   : Matroska\nFormat version                           : Version 4 / Version 2\nFile size                                : 2.03 GiB\nDuration                                 : 1h 32mn\nOverall bit rate                         : 3 137 Kbps\nMovie name                               : Support Your Local Sheriff! (1969)\nEncoded date                             : UTC 2014-01-10 21:15:01\nWriting application                      : mkvmerge v6.7.0 ('Back to the Ground') 64bit built on Jan  8 2014 15:10:52\nWriting library                          : libebml v1.3.0 + libmatroska v1.4.1\n\nVideo\nID                                       : 1\nFormat                                   : AVC\nFormat/Info                              : Advanced Video Codec\nFormat profile                           : &lt;a class=&quot;__cf_email__&quot; href=&quot;/cdn-cgi/l/email-protection&quot; data-cfemail=&quot;185579717658542c3629&quot;&gt;[email&amp;#160;protected]&lt;/a&gt;&lt;script cf-hash='f9e31' type=&quot;text/javascript&quot;&gt;\n/* &lt;![CDATA[ */!function(){try{var t=&quot;currentScript&quot;in document?document.currentScript:function(){for(var t=document.getElementsByTagName(&quot;script&quot;),e=t.length;e--;)if(t[e].getAttribute(&quot;cf-hash&quot;))return t[e]}();if(t&amp;&amp;t.previousSibling){var e,r,n,i,c=t.previousSibling,a=c.getAttribute(&quot;data-cfemail&quot;);if(a){for(e=&quot;&quot;,r=parseInt(a.substr(0,2),16),n=2;a.length-n;n+=2)i=parseInt(a.substr(n,2),16)^r,e+=String.fromCharCode(i);e=document.createTextNode(e),c.parentNode.replaceChild(e,c)}}}catch(u){}}();/* ]]&gt; */&lt;/script&gt;\nFormat settings, CABAC                   : Yes\nFormat settings, ReFrames                : 1 frame\nCodec ID                                 : V_MPEG4/ISO/AVC\nDuration                                 : 1h 32mn\nBit rate                                 : 2 750 Kbps\nWidth                                    : 1 280 pixels\nHeight                                   : 720 pixels\nDisplay aspect ratio                     : 16:9\nFrame rate mode                          : Constant\nFrame rate                               : 23.976 fps\nColor space                              : YUV\nChroma subsampling                       : 4:2:0\nBit depth                                : 8 bits\nScan type                                : Progressive\nBits/(Pixel*Frame)                       : 0.124\nStream size                              : 1.74 GiB (86%)\nWriting library                          : x264 core 130 r2273 b3065e6\nEncoding settings                        : cabac=1 / ref=1 / deblock=0:-1:-1 / analyse=0:0 / me=dia / subme=0 / psy=1 / psy_rd=1.00:0.15 / mixed_ref=0 / me_range=16 / chroma_me=1 / trellis=0 / 8x8dct=0 / cqm=0 / deadzone=21,11 / fast_pskip=1 / chroma_qp_offset=0 / threads=6 / lookahead_threads=1 / sliced_threads=0 / nr=0 / decimate=1 / interlaced=0 / bluray_compat=0 / constrained_intra=0 / bframes=0 / weightp=0 / keyint=240 / keyint_min=24 / scenecut=0 / intra_refresh=0 / rc_lookahead=0 / rc=2pass / mbtree=0 / bitrate=2750 / ratetol=1.0 / qcomp=0.60 / qpmin=0 / qpmax=69 / qpstep=4 / cplxblur=20.0 / qblur=0.5 / vbv_maxrate=50000 / vbv_bufsize=62500 / nal_hrd=none / ip_ratio=1.40 / aq=0\nLanguage                                 : English\nDefault                                  : Yes\nForced                                   : No\nColor primaries                          : BT.709\nTransfer characteristics                 : BT.709\nMatrix coefficients                      : BT.709\n\nAudio #1\nID                                       : 2\nFormat                                   : AC-3\nFormat/Info                              : Audio Coding 3\nMode extension                           : CM (complete main)\nFormat settings, Endianness              : Big\nCodec ID                                 : A_AC3\nDuration                                 : 1h 32mn\nBit rate mode                            : Constant\nBit rate                                 : 192 Kbps\nChannel(s)                               : 2 channels\nChannel positions                        : Front: L R\nSampling rate                            : 48.0 KHz\nBit depth                                : 16 bits\nCompression mode                         : Lossy\nStream size                              : 127 MiB (6%)\nLanguage                                 : English\nDefault                                  : Yes\nForced                                   : No\n\nAudio #2\nID                                       : 3\nFormat                                   : AC-3\nFormat/Info                              : Audio Coding 3\nMode extension                           : CM (complete main)\nFormat settings, Endianness              : Big\nCodec ID                                 : A_AC3\nDuration                                 : 1h 32mn\nBit rate mode                            : Constant\nBit rate                                 : 192 Kbps\nChannel(s)                               : 2 channels\nChannel positions                        : Front: L R\nSampling rate                            : 48.0 KHz\nBit depth                                : 16 bits\nCompression mode                         : Lossy\nStream size                              : 127 MiB (6%)\nLanguage                                 : Spanish\nDefault                                  : No\nForced                                   : No\n\nText #1\nID                                       : 4\nFormat                                   : UTF-8\nCodec ID                                 : S_TEXT/UTF8\nCodec ID/Info                            : UTF-8 Plain Text\nLanguage                                 : English\nDefault                                  : Yes\nForced                                   : No\n\nText #2\nID                                       : 5\nFormat                                   : UTF-8\nCodec ID                                 : S_TEXT/UTF8\nCodec ID/Info                            : UTF-8 Plain Text\nLanguage                                 : Spanish\nDefault                                  : No\nForced                                   : No\n\nText #3\nID                                       : 6\nFormat                                   : UTF-8\nCodec ID                                 : S_TEXT/UTF8\nCodec ID/Info                            : UTF-8 Plain Text\nLanguage                                 : French\nDefault                                  : No\nForced                                   : No\n\nText #4\nID                                       : 7\nFormat                                   : UTF-8\nCodec ID                                 : S_TEXT/UTF8\nCodec ID/Info                            : UTF-8 Plain Text\nLanguage                                 : Russian\nDefault                                  : No\nForced                                   : No\n\nMenu\n00:00:00.000                             : en:Gold Diggers/Title\n00:07:43.634                             : en:Self-Defense\n00:13:02.667                             : en:New Badge in Town\n00:21:15.301                             : en:Town Brawl\n00:26:03.135                             : en:The Mayor's Daughter\n00:31:38.635                             : en:Arresting Joe Danby\n00:41:58.635                             : en:Prudy's Bad Luck\n00:46:50.969                             : en:Meet the Danbys\n00:54:08.436                             : en:&quot;Dumb Little Old Girl&quot;\n01:03:10.636                             : en:Deas Troublemakers\n01:07:51.769                             : en:A Busted Bust\n01:11:17.269                             : en:Mature Cowardice\n01:15:45.469                             : en:A Civic Duty\n01:20:20.103                             : en:Sheriff's Bluff\n01:28:00.270                             : en:A Popular Man\n01:31:10.937                             : en:Credits","torrent":{"xt":"urn:btih:2fbd17b7ba470c3f5e212095b3404cbc900c7b0c","amp;dn":"Support+Your+Local+Sheriff+%281969%29+720p+DVDRemastered.mkv","amp;tr":["udp%3A%2F%2Ftracker.openbittorrent.com%3A80","udp%3A%2F%2Fopen.demonii.com%3A1337","udp%3A%2F%2Ftracker.coppersurfer.tk%3A6969","udp%3A%2F%2Fexodus.desync.com%3A6969"],"infoHash":"2fbd17b7ba470c3f5e212095b3404cbc900c7b0c","infoHashBuffer":{"type":"Buffer","data":[47,189,23,183,186,71,12,63,94,33,32,149,179,64,76,188,144,12,123,12]},"announce":[],"urlList":[]}}